Coordinates
version=1
nRows=15
nColumns=34
inDegrees=yes

Units are S.I. units (second, meters, Newtons, ...)
If the header above contains a line with 'inDegrees', this indicates whether rotational values are in degrees (yes) or radians (no).

endheader
time	pelvis_tilt	pelvis_list	pelvis_rotation	pelvis_tx	pelvis_ty	pelvis_tz	hip_flexion_r	hip_adduction_r	hip_rotation_r	knee_angle_r	ankle_angle_r	subtalar_angle_r	mtp_angle_r	hip_flexion_l	hip_adduction_l	hip_rotation_l	knee_angle_l	ankle_angle_l	subtalar_angle_l	mtp_angle_l	lumbar_extension	lumbar_bending	lumbar_rotation	arm_flex_r	arm_add_r	arm_rot_r	elbow_flex_r	pro_sup_r	arm_flex_l	arm_add_l	arm_rot_l	elbow_flex_l	pro_sup_l
      4.01666670	    -21.95066253	     15.82799421	    -15.70973739	     -2.25684198	      0.90226184	      0.72671400	     35.96054611	     -6.59792196	     -0.13507758	      4.99267564	      1.15229981	     -4.09049212	      0.00000000	     23.83502701	      0.39764361	    -38.18279534	      0.00000000	      1.94253469	     15.73206532	      0.00000000	     -3.51046563	     19.93278639	     -8.84572903	     -0.35594330	     -3.72750804	    -43.17845474	     42.81006085	     64.45998561	     11.01853044	    -24.68400000	     43.33549153	     56.62935468	     64.32502601
      4.03333330	    -21.97281632	     15.78896586	    -15.52496068	     -2.25936847	      0.90146100	      0.72699937	     35.93569526	     -6.62426809	     -0.25272415	      4.79340743	      1.24793854	     -4.15197766	      0.00000000	     23.93371277	      0.50764424	    -38.05591589	      0.00000000	      2.12664148	     15.71907192	      0.00000000	     -3.36652229	     19.43164457	     -8.61746756	     -0.04099742	     -3.18690822	    -42.92576607	     42.86103078	     64.54256832	     11.20440714	    -24.55939544	     43.19069968	     56.68994765	     64.28446718
      4.05000000	    -21.90610229	     15.68118758	    -15.59750601	     -2.26282429	      0.90148505	      0.72762689	     35.93206008	     -6.42022179	     -0.28969651	      4.65723514	      1.30310431	     -4.14897437	      0.00000000	     23.98863855	      0.43878634	    -37.95059906	      0.00000000	      2.18600388	     15.70905115	      0.00000000	     -3.18450290	     18.94783755	     -8.49876223	      0.12329290	     -2.97218161	    -42.78578738	     42.94514350	     64.58590542	     11.30393990	    -24.49885312	     43.09299085	     56.70768807	     64.26798759
      4.06666670	    -21.89199409	     15.86272570	    -15.94964331	     -2.26667140	      0.90012841	      0.72843756	     36.34826087	     -6.24736162	      0.18761796	      4.82562499	      1.53927504	     -3.80270396	      0.00000000	     24.18927761	      0.49309618	    -37.74529318	      0.00000000	      2.23601893	     14.77171058	      0.00000000	     -2.93066816	     18.24368362	     -9.24385485	      0.05735370	     -3.08534593	    -38.90931857	     43.43602064	     67.27021613	      9.70440757	    -24.45299267	     39.44267887	     56.99843942	     63.79018328
      4.08333330	    -21.74043982	     15.73537623	    -16.22235704	     -2.26987185	      0.90096456	      0.72915118	     36.39991279	     -5.90710429	      0.16622780	      4.84651569	      1.56402311	     -3.79790982	      0.00000000	     24.18000430	      0.30499896	    -37.72073587	      0.00000000	      2.32291885	     14.68223758	      0.00000000	     -2.70487900	     17.71146830	     -9.17074662	     -0.00676382	     -2.88056429	    -38.81224796	     43.43214384	     67.31581370	      9.82699065	    -24.54017992	     39.27778786	     57.01086590	     63.78593115
      4.10000000	    -21.57071235	     16.07921143	    -16.76653225	     -2.27260631	      0.90212131	      0.73069807	     36.77962307	     -5.80716813	      0.76933954	      5.05268042	      1.71017346	     -3.59775174	      0.00000000	     24.25565296	      0.45496008	    -37.98972748	      0.00000000	      2.35272515	     13.85823804	      0.00000000	     -2.73233918	     16.49634971	     -8.56116942	     -0.31141227	     -2.64606293	    -38.08995639	     43.32224969	     67.65577710	      9.90754739	    -24.57323804	     38.40110817	     56.86919697	     63.78139571
      4.11666670	    -21.69001951	     15.92832774	    -16.67720427	     -2.27191078	      0.90127186	      0.73203778	     36.83910209	     -5.53583274	      0.73685064	      4.96771464	      1.43701516	     -4.17102980	      0.00000000	     24.46437980	      0.27032198	    -37.58301276	      0.00000000	      2.04755294	     13.05549908	      0.00000000	     -2.24630088	     16.03055698	     -9.87501488	      0.04940671	     -2.99750764	    -34.38826821	     42.18295267	     70.31944724	      8.16337888	    -24.43026431	     34.50267986	     56.98167178	     64.59443675
      4.13333330	    -21.52936200	     15.71665841	    -16.59872050	     -2.26652762	      0.90135455	      0.73339237	     36.43516105	     -5.43115763	      0.48287254	      4.98648382	      1.52265242	     -4.29124804	      0.00000000	     24.22769394	      0.17837000	    -37.72791027	      0.00000000	      1.95331175	     12.97553771	      0.00000000	     -1.86936439	     15.49966707	     -9.84085164	     -0.40815391	     -2.82206924	    -34.42776817	     41.95479051	     70.36512062	      8.02713162	    -24.43821306	     34.37380993	     57.00928401	     64.62846628
      4.15000000	    -21.08203028	     15.03253517	    -16.17597918	     -2.25782221	      0.90714454	      0.73384665	     35.09509504	     -5.29548815	     -0.28239957	      4.71409574	      1.35751667	     -4.49023131	      0.00000000	     23.41128447	     -0.02266758	    -37.68979729	      0.00000000	      1.84588456	     13.21723379	      0.00000000	     -1.58341275	     15.49499181	    -10.45446396	     -0.41569225	     -2.99946003	    -34.74589524	     40.52502039	     70.88061282	      7.59925141	    -23.68282201	     33.24326683	     55.99740126	     65.04917591
      4.16666670	    -20.77930093	     14.31668050	    -15.61442061	     -2.25083841	      0.90871741	      0.73275475	     33.93769302	     -5.18693848	     -1.11870040	      4.70521198	      1.24126806	     -4.84845755	      0.00000000	     22.63791300	     -0.17211945	    -37.82073293	      0.00000000	      1.76140607	     13.77901655	      0.00000000	     -0.91888832	     15.69401083	    -11.53065510	     -0.35495811	     -3.28533885	    -34.75139350	     39.00904381	     72.69043201	      6.31849191	    -22.69575465	     31.02004898	     55.27724154	     66.89566754
      4.18333330	    -20.49585368	     13.46252741	    -15.01732368	     -2.24812844	      0.91028302	      0.73083243	     32.73331807	     -4.91310889	     -1.78200790	      4.45699658	      1.24006437	     -5.34476317	      0.00000000	     21.91402395	     -0.40853649	    -37.73618452	      0.00000000	      1.84656295	     14.14566670	      0.00000000	     -0.39761732	     16.17885365	    -12.39193102	     -0.75997675	     -3.60991845	    -34.89717461	     38.98439992	     72.81602289	      5.77625031	    -22.32466124	     31.23346187	     55.00315768	     67.11848847
      4.20000000	    -19.94646562	     12.64304941	    -14.64902085	     -2.24697684	      0.90899721	      0.72924593	     31.45166572	     -4.62309549	     -2.34829423	      4.23054031	      1.11654124	     -5.70487225	      0.00000000	     21.03139912	     -0.62387373	    -37.74240994	      0.00000000	      2.23546135	     14.41002385	      0.00000000	     -0.26039592	     16.60769660	    -13.24364214	     -0.79704722	     -3.92658813	    -35.02254975	     38.75952798	     73.03315630	      5.31171911	    -21.90235584	     31.24071961	     54.21259539	     67.48660899
      4.21666670	    -19.67202864	     12.17330565	    -14.49628838	     -2.24456018	      0.90630793	      0.72855116	     30.75987544	     -4.45182793	     -2.28613613	      4.25416386	      1.50037408	     -5.87531016	      0.00000000	     20.54143774	     -0.72250095	    -37.93098480	      0.00000000	      2.52627288	     14.27778200	      0.00000000	      0.23974177	     16.72406010	    -13.50883404	     -1.28647035	     -4.38244014	    -35.17152769	     38.61161787	     73.06168045	      4.86966340	    -21.61208832	     31.33546586	     54.10504586	     67.57239845
      4.23333330	    -18.88085290	     11.28282072	    -14.17790470	     -2.24051856	      0.90597428	      0.72795766	     28.99552639	     -4.14358357	     -2.41659930	      3.69238015	      1.64716226	     -6.02490906	      0.00000000	     19.43811131	     -1.07178354	    -37.63336984	      0.00000000	      3.04349277	     14.59803407	      0.00000000	      0.23948615	     17.08818537	    -14.48183031	     -1.19854763	     -4.99548750	    -35.22426712	     37.92943610	     73.47900366	      4.48765931	    -21.02476058	     30.87382156	     52.77907586	     68.47177437
      4.25000000	    -18.59995693	     10.72527325	    -13.84502507	     -2.23779920	      0.90508642	      0.72756037	     27.97945236	     -3.98010467	     -2.38626423	      3.35743096	      1.93903104	     -6.21043549	      0.00000000	     18.94643810	     -1.29854248	    -37.49515679	      0.00000000	      3.49229837	     14.61833596	      0.00000000	      0.86898084	     17.14631417	    -14.93826065	     -1.72823244	     -5.59475784	    -35.28579807	     37.76307085	     73.56685199	      4.05319327	    -20.66441334	     30.89462265	     52.63459553	     68.72599305
